<svg viewBox="0 0 100 100" xmlns="http://www.w3.org/2000/svg">
  <circle cx="50" cy="50" r="48" fill="#12141c"/>
  <circle cx="50" cy="50" r="44.5" fill="none" stroke="#c9962b" stroke-width="2.2"/>
  <circle cx="50" cy="50" r="39" fill="none" stroke="#c9962b" stroke-width="0.8" opacity="0.55"/>
  <path d="M27,49
           C25,40 32,32 44,29
           L62,27
           C71,27 78,33 78,42
           L78,49
           C78,54 73,57 68,57
           L66,64 L61,57
           L57,64 L53,57
           L49,64 L45,57
           L37,57
           C31,57 27,54 27,49 Z"
        fill="#e0b45a"/>
  <circle cx="41" cy="40" r="5.2" fill="#12141c"/>
  <path d="M44,29 C50,31 56,31 62,27" fill="none" stroke="#12141c" stroke-width="1.4" opacity="0.5"/>
</svg>
