<svg viewBox="0 0 100 100" xmlns="http://www.w3.org/2000/svg">
  <rect x="0" y="0" width="100" height="100" fill="#12141c"/>
  <circle cx="50" cy="50" r="38" fill="none" stroke="#c9962b" stroke-width="2"/>
  <circle cx="50" cy="50" r="33" fill="none" stroke="#c9962b" stroke-width="0.7" opacity="0.55"/>
  <g transform="translate(50,50) scale(0.72) translate(-50,-50)">
    <path d="M27,49
             C25,40 32,32 44,29
             L62,27
             C71,27 78,33 78,42
             L78,49
             C78,54 73,57 68,57
             L66,64 L61,57
             L57,64 L53,57
             L49,64 L45,57
             L37,57
             C31,57 27,54 27,49 Z"
          fill="#e0b45a"/>
    <circle cx="41" cy="40" r="5.2" fill="#12141c"/>
  </g>
</svg>
